# xmcd
#
# Track frame offsets: 
#        150
#        12518
#        25423
#        40398
#        55586
#        69760
#        83598
#        99488
#        110333
#        122443
#        137378
#        152273
#        164798
#        179761
#        193551
#        206645
#        221615
#        234328
#
# Disc length: 3323 seconds
#
# Revision: 1
# Processed by: cddbd v1.5.2PL0 Copyright (c) Steve Scherf et al.
# Submitted via: ExactAudioCopy v0.95b2
#
DISCID=ea0cf912
DTITLE=Bo Carter - The Essential - Disc 1
DYEAR=2002
DGENRE=Blues
TTITLE0=The Law Gonna Step On You
TTITLE1=Pigmeat Is What I Crave
TTITLE2=Twist It, Babe
TTITLE3=Same Thing The Cats All Fight About
TTITLE4=Banana In Your Fruit Basket
TTITLE5=I Want You To Know
TTITLE6=Baby, How Can It Be?
TTITLE7=Don't Do It No More
TTITLE8=Mashing That Thing
TTITLE9=It's Done Got Wet
TTITLE10=Cigarette Blues
TTITLE11=Honey
TTITLE12=Let's Get Drunk Again
TTITLE13=Old Devil Blues
TTITLE14=Pussy Cat Blues
TTITLE15=Corrine Corrina
TTITLE16=I've Got The Whole World In My Hand
TTITLE17=Ways Like A Crawfish
EXTD=
EXTT0=
EXTT1=
EXTT2=
EXTT3=
EXTT4=
EXTT5=
EXTT6=
EXTT7=
EXTT8=
EXTT9=
EXTT10=
EXTT11=
EXTT12=
EXTT13=
EXTT14=
EXTT15=
EXTT16=
EXTT17=
PLAYORDER=
